<svg width="19" height="19" viewBox="0 0 19 19" fill="none" xmlns="http://www.w3.org/2000/svg">
<rect width="19" height="19" rx="2" fill="#3f3fff"/>
<path d="M8.024 5.576V11.312C8.024 12.2 7.772 12.884 7.268 13.364C6.772 13.844 6.1 14.084 5.252 14.084C4.364 14.084 3.652 13.832 3.116 13.328C2.58 12.824 2.312 12.108 2.312 11.18H4.352C4.352 11.532 4.424 11.8 4.568 11.984C4.712 12.16 4.92 12.248 5.192 12.248C5.44 12.248 5.632 12.168 5.768 12.008C5.904 11.848 5.972 11.616 5.972 11.312V5.576H8.024ZM14.5655 14L11.7335 10.28V14H9.6815V5.576H11.7335V9.272L14.5415 5.576H16.9535L13.6895 9.704L17.0735 14H14.5655Z" fill="#FFFFFF"/>
</svg>
